<svg id="Add to Overcast" data-name="Add to Overcast" xmlns="http://www.w3.org/2000/svg" xmlns:xlink="http://www.w3.org/1999/xlink" viewBox="0 0 34 34"><defs><style>.cls-1{fill:url(#linear-gradient);}.cls-2{fill:#fff;}</style><linearGradient id="linear-gradient" x1="17" y1="35.99" x2="17" y2="2.01" gradientTransform="matrix(1, 0, 0, -1, 0, 36)" gradientUnits="userSpaceOnUse"><stop offset="0" stop-color="#ff9402"/><stop offset="1" stop-color="#ff613c"/></linearGradient></defs><title>overcast</title><path id="_Tracé_" data-name="&lt;Tracé&gt;" class="cls-1" d="M33.32,29.47a7.2,7.2,0,0,1-2.17,2.85,7.11,7.11,0,0,1-2.39,1.24,14.8,14.8,0,0,1-4.11.43H9.35a14.8,14.8,0,0,1-4.11-.43,7.19,7.19,0,0,1-4.57-4.1A13.34,13.34,0,0,1,0,24.65H0V9.35H0A13.31,13.31,0,0,1,.68,4.53,7.19,7.19,0,0,1,5.25.44,14.8,14.8,0,0,1,9.35,0h15.3a14.8,14.8,0,0,1,4.11.43,7.19,7.19,0,0,1,4.57,4.1A13.34,13.34,0,0,1,34,9.35v15.3A13.31,13.31,0,0,1,33.32,29.47Z"/><path id="overcastCanvas-group" class="cls-2" d="M17,27.5A10.5,10.5,0,1,1,27.5,17,10.48,10.48,0,0,1,17,27.5Zm0-4.16.79-.79-.79-3-.79,3Zm-1,0-.39,1.49.92-.92Zm2,0-.53.53.92.92ZM18.75,26,17,24.26,15.25,26a11.28,11.28,0,0,0,1.75.18A7.67,7.67,0,0,0,18.75,26ZM17,7.81a9.18,9.18,0,0,0-3,17.85l2-7.31a1.7,1.7,0,0,1-.7-1.4,1.75,1.75,0,1,1,2.8,1.4l2,7.31A9.18,9.18,0,0,0,17,7.81Zm6,13.74a.68.68,0,0,1-.92.13.59.59,0,0,1-.13-.88,6.72,6.72,0,0,0,0-7.61.59.59,0,0,1,.13-.88.68.68,0,0,1,.92.13,7.89,7.89,0,0,1,0,9.1ZM19.8,19.84a.74.74,0,0,1,0-1A2.86,2.86,0,0,0,20.5,17a3,3,0,0,0-.66-1.84.79.79,0,0,1,0-1,.6.6,0,0,1,.92,0,4.36,4.36,0,0,1,0,5.78A.64.64,0,0,1,19.8,19.84Zm-5.6,0a.64.64,0,0,1-.92,0,4.36,4.36,0,0,1,0-5.78.6.6,0,0,1,.92,0,.74.74,0,0,1,0,1A3,3,0,0,0,13.5,17a2.86,2.86,0,0,0,.66,1.84A.74.74,0,0,1,14.2,19.84Zm-2.28,1.84a.68.68,0,0,1-.92-.13,7.89,7.89,0,0,1,0-9.1.68.68,0,0,1,.92-.13.59.59,0,0,1,.13.88,6.72,6.72,0,0,0,0,7.61A.63.63,0,0,1,11.92,21.68Z"/></svg>